<?xml version="1.0" encoding="utf-8"?><!-- Uploaded to: SVG Repo, www.svgrepo.com, Generator: SVG Repo Mixer Tools -->
<svg width="24px" height="24px" viewBox="0 0 24 24" fill="none" xmlns="http://www.w3.org/2000/svg">
<path d="M13 9C13 8.44771 12.5523 8 12 8C11.4477 8 11 8.44771 11 9V11.5858C11 12.1162 11.2107 12.6249 11.5858 13L13.2929 14.7071C13.6834 15.0976 14.3166 15.0976 14.7071 14.7071C15.0976 14.3166 15.0976 13.6834 14.7071 13.2929L13 11.5858V9Z" fill="#0F0F0F"/>
<path fill-rule="evenodd" clip-rule="evenodd" d="M7 5.75463V3C7 1.34315 8.34315 0 10 0H14C15.6569 0 17 1.34315 17 3V5.75463C18.5838 7.02422 19.6742 8.88376 19.9381 11C20.5045 11 21 11.4069 21 12C21 12.5931 20.5045 13 19.9381 13C19.6742 15.1162 18.5838 16.9758 17 18.2454V21C17 22.6569 15.6569 24 14 24H10C8.34315 24 7 22.6569 7 21L7 18.2454C5.17108 16.7792 4 14.5264 4 12C4 9.47362 5.17108 7.22075 7 5.75463ZM9 3C9 2.44772 9.44772 2 10 2H14C14.5523 2 15 2.44772 15 3V4.58152C14.0736 4.20651 13.0609 4 12 4C10.9391 4 9.92643 4.20651 9 4.58152V3ZM12 20C13.0609 20 14.0736 19.7935 15 19.4185V21C15 21.5523 14.5523 22 14 22H10C9.44772 22 9 21.5523 9 21L9 19.4185C9.92643 19.7935 10.9391 20 12 20ZM6.02716 12C6.02716 15.2987 8.70129 17.9728 12 17.9728C15.2987 17.9728 17.9728 15.2987 17.9728 12C17.9728 8.70129 15.2987 6.02716 12 6.02716C8.70129 6.02716 6.02716 8.70129 6.02716 12Z" fill="#0F0F0F"/>
</svg>