<?xml version="1.0" encoding="utf-8"?><!-- Uploaded to: SVG Repo, www.svgrepo.com, Generator: SVG Repo Mixer Tools -->
<svg width="24px" height="24px" viewBox="0 0 24 24" fill="none" xmlns="http://www.w3.org/2000/svg">
<path fill-rule="evenodd" clip-rule="evenodd" d="M22.9999 11.9998C22.9999 18.0749 18.075 22.9998 11.9999 22.9998C5.92478 22.9998 0.999908 18.0749 0.999908 11.9998C0.999908 5.92462 5.92478 0.999756 11.9999 0.999756C18.075 0.999756 22.9999 5.92462 22.9999 11.9998ZM3.00674 11.9998C3.00674 14.5875 4.09974 16.92 5.84927 18.5608C6.0769 18.2328 6.34676 17.808 6.61709 17.2997C7.31622 15.9851 8 14.1476 8 12C8 9.85239 7.31622 8.01489 6.61709 6.7003C6.34668 6.19183 6.07674 5.7669 5.84906 5.43891C4.09965 7.07965 3.00674 9.41207 3.00674 11.9998ZM11.9999 20.9929C10.3404 20.9929 8.78593 20.5434 7.45152 19.7596C7.72696 19.3672 8.05519 18.855 8.38291 18.2388C9.18378 16.7329 10 14.5704 10 12C10 9.42961 9.18378 7.26711 8.38291 5.7612C8.0551 5.14481 7.72676 4.6325 7.45127 4.24005C8.78574 3.45612 10.3403 3.00659 11.9999 3.00659C13.6595 3.00659 15.2142 3.45615 16.5487 4.24013C16.2732 4.63257 15.9449 5.14485 15.6171 5.7612C14.8162 7.26711 14 9.42961 14 12C14 14.5704 14.8162 16.7329 15.6171 18.2388C15.9448 18.855 16.273 19.3671 16.5484 19.7595C15.214 20.5434 13.6594 20.9929 11.9999 20.9929ZM18.1507 18.5607C19.9001 16.9199 20.9931 14.5875 20.9931 11.9998C20.9931 9.41213 19.9002 7.07975 18.1509 5.43901C17.9232 5.76699 17.6533 6.19189 17.3829 6.7003C16.6838 8.01489 16 9.85239 16 12C16 14.1476 16.6838 15.9851 17.3829 17.2997C17.6532 17.808 17.923 18.2328 18.1507 18.5607Z" fill="#0F0F0F"/>
</svg>