<?xml version="1.0" encoding="utf-8"?><!-- Uploaded to: SVG Repo, www.svgrepo.com, Generator: SVG Repo Mixer Tools -->
<svg width="24px" height="24px" viewBox="0 0 24 24" fill="none" xmlns="http://www.w3.org/2000/svg">
<path fill-rule="evenodd" clip-rule="evenodd" d="M1 6C1.13522 6 3.00001 6 3.00001 6C3.00001 6 3.00653 6.15641 3.02534 6.26173C3.04671 6.38142 3.08552 6.53025 3.15505 6.69711C3.29675 7.03721 3.55459 7.42429 4.00031 7.78087C4.87797 8.483 6.39316 9 9 9H13.2192L14.7192 15H14C12.3431 15 11 16.3431 11 18V20C11 21.6569 12.3431 23 14 23H21C22.6569 23 24 21.6569 24 20V17.4384C24 16.1665 23.0261 15.122 21.7833 15.0099L20.2808 9H21C22.6569 9 24 7.65685 24 6V4C24 2.34315 22.6569 1 21 1H9C6.39316 1 4.87797 1.517 4.00031 2.21913C3.55459 2.57571 3.29675 2.96279 3.15505 3.30288C3.08552 3.46975 3.04671 3.61858 3.02534 3.73827C3.00979 3.82533 3.00391 3.91187 3.00001 4H1C0.447715 4 0 4.44772 0 5C0 5.55228 0.447715 6 1 6ZM5 5.92495L5.0012 5.92788C5.01575 5.96279 5.07041 6.07571 5.24969 6.21913C5.56521 6.47154 6.32055 6.8569 8 6.96863V3.03137C6.32055 3.1431 5.56521 3.52846 5.24969 3.78087C5.07041 3.92429 5.01575 4.03721 5.0012 4.07212L5 4.07505V5.92495ZM10 3V7H13.2192C14.137 7 14.9369 7.62459 15.1595 8.51493L16.6595 14.5149C16.9751 15.7772 16.0204 17 14.7192 17H14C13.4477 17 13 17.4477 13 18V20C13 20.5523 13.4477 21 14 21H21C21.5523 21 22 20.5523 22 20V17.4384C22 17.1963 21.8037 17 21.5616 17C20.7727 17 20.085 16.4631 19.8937 15.6978L18.3405 9.48507C18.0249 8.22278 18.9796 7 20.2808 7H21C21.5523 7 22 6.55228 22 6V4C22 3.44772 21.5523 3 21 3H10Z" fill="#0F0F0F"/>
</svg>